solid ascii
  facet normal 0.000000e+000 -1.000000e+000 0.000000e+000
    outer loop
      vertex   -6.349999e+000 1.270000e+001 0.000000e+000
      vertex   0.000000e+000 1.270000e+001 0.000000e+000
      vertex   -6.349999e+000 1.270000e+001 6.350000e+000
    endloop
  endfacet
  facet normal 0.000000e+000 -1.000000e+000 0.000000e+000
    outer loop
      vertex   -6.349999e+000 1.270000e+001 6.350000e+000
      vertex   0.000000e+000 1.270000e+001 0.000000e+000
      vertex   0.000000e+000 1.270000e+001 6.350000e+000
    endloop
  endfacet
  facet normal 1.000000e+000 0.000000e+000 -0.000000e+000
    outer loop
      vertex   -6.349999e+000 0.000000e+000 0.000000e+000
      vertex   -6.349999e+000 1.270000e+001 0.000000e+000
      vertex   -6.349999e+000 0.000000e+000 6.350000e+000
    endloop
  endfacet
  facet normal 1.000000e+000 -0.000000e+000 0.000000e+000
    outer loop
      vertex   -6.349999e+000 0.000000e+000 6.350000e+000
      vertex   -6.349999e+000 1.270000e+001 0.000000e+000
      vertex   -6.349999e+000 1.270000e+001 6.350000e+000
    endloop
  endfacet
  facet normal 0.000000e+000 -1.000000e+000 0.000000e+000
    outer loop
      vertex   -1.270000e+001 0.000000e+000 0.000000e+000
      vertex   -6.349999e+000 0.000000e+000 0.000000e+000
      vertex   -1.270000e+001 0.000000e+000 6.350000e+000
    endloop
  endfacet
  facet normal 0.000000e+000 -1.000000e+000 0.000000e+000
    outer loop
      vertex   -1.270000e+001 0.000000e+000 6.350000e+000
      vertex   -6.349999e+000 0.000000e+000 0.000000e+000
      vertex   -6.349999e+000 0.000000e+000 6.350000e+000
    endloop
  endfacet
  facet normal -1.000000e+000 0.000000e+000 0.000000e+000
    outer loop
      vertex   -1.270000e+001 6.349999e+000 0.000000e+000
      vertex   -1.270000e+001 0.000000e+000 0.000000e+000
      vertex   -1.270000e+001 6.349999e+000 6.350000e+000
    endloop
  endfacet
  facet normal -1.000000e+000 -0.000000e+000 0.000000e+000
    outer loop
      vertex   -1.270000e+001 6.349999e+000 6.350000e+000
      vertex   -1.270000e+001 0.000000e+000 0.000000e+000
      vertex   -1.270000e+001 0.000000e+000 6.350000e+000
    endloop
  endfacet
  facet normal 0.000000e+000 -1.000000e+000 0.000000e+000
    outer loop
      vertex   -3.809999e+001 6.349999e+000 0.000000e+000
      vertex   -1.270000e+001 6.349999e+000 0.000000e+000
      vertex   -3.809999e+001 6.349999e+000 6.350000e+000
    endloop
  endfacet
  facet normal 0.000000e+000 -1.000000e+000 0.000000e+000
    outer loop
      vertex   -3.809999e+001 6.349999e+000 6.350000e+000
      vertex   -1.270000e+001 6.349999e+000 0.000000e+000
      vertex   -1.270000e+001 6.349999e+000 6.350000e+000
    endloop
  endfacet
  facet normal 1.000000e+000 0.000000e+000 -0.000000e+000
    outer loop
      vertex   -3.809999e+001 0.000000e+000 0.000000e+000
      vertex   -3.809999e+001 6.349999e+000 0.000000e+000
      vertex   -3.809999e+001 0.000000e+000 6.350000e+000
    endloop
  endfacet
  facet normal 1.000000e+000 -0.000000e+000 0.000000e+000
    outer loop
      vertex   -3.809999e+001 0.000000e+000 6.350000e+000
      vertex   -3.809999e+001 6.349999e+000 0.000000e+000
      vertex   -3.809999e+001 6.349999e+000 6.350000e+000
    endloop
  endfacet
  facet normal 0.000000e+000 -1.000000e+000 0.000000e+000
    outer loop
      vertex   -4.444999e+001 0.000000e+000 0.000000e+000
      vertex   -3.809999e+001 0.000000e+000 0.000000e+000
      vertex   -4.444999e+001 0.000000e+000 6.350000e+000
    endloop
  endfacet
  facet normal 0.000000e+000 -1.000000e+000 0.000000e+000
    outer loop
      vertex   -4.444999e+001 0.000000e+000 6.350000e+000
      vertex   -3.809999e+001 0.000000e+000 0.000000e+000
      vertex   -3.809999e+001 0.000000e+000 6.350000e+000
    endloop
  endfacet
  facet normal -1.000000e+000 0.000000e+000 0.000000e+000
    outer loop
      vertex   -4.444999e+001 1.270000e+001 0.000000e+000
      vertex   -4.444999e+001 0.000000e+000 0.000000e+000
      vertex   -4.444999e+001 1.270000e+001 6.350000e+000
    endloop
  endfacet
  facet normal -1.000000e+000 -0.000000e+000 0.000000e+000
    outer loop
      vertex   -4.444999e+001 1.270000e+001 6.350000e+000
      vertex   -4.444999e+001 0.000000e+000 0.000000e+000
      vertex   -4.444999e+001 0.000000e+000 6.350000e+000
    endloop
  endfacet
  facet normal 0.000000e+000 -1.000000e+000 0.000000e+000
    outer loop
      vertex   -5.079999e+001 1.270000e+001 0.000000e+000
      vertex   -4.444999e+001 1.270000e+001 0.000000e+000
      vertex   -5.079999e+001 1.270000e+001 6.350000e+000
    endloop
  endfacet
  facet normal 0.000000e+000 -1.000000e+000 0.000000e+000
    outer loop
      vertex   -5.079999e+001 1.270000e+001 6.350000e+000
      vertex   -4.444999e+001 1.270000e+001 0.000000e+000
      vertex   -4.444999e+001 1.270000e+001 6.350000e+000
    endloop
  endfacet
  facet normal -1.000000e+000 0.000000e+000 0.000000e+000
    outer loop
      vertex   -5.079999e+001 3.809999e+001 0.000000e+000
      vertex   -5.079999e+001 1.270000e+001 0.000000e+000
      vertex   -5.079999e+001 3.809999e+001 6.350000e+000
    endloop
  endfacet
  facet normal -1.000000e+000 -0.000000e+000 0.000000e+000
    outer loop
      vertex   -5.079999e+001 3.809999e+001 6.350000e+000
      vertex   -5.079999e+001 1.270000e+001 0.000000e+000
      vertex   -5.079999e+001 1.270000e+001 6.350000e+000
    endloop
  endfacet
  facet normal 0.000000e+000 1.000000e+000 -0.000000e+000
    outer loop
      vertex   -4.444999e+001 3.809999e+001 0.000000e+000
      vertex   -5.079999e+001 3.809999e+001 0.000000e+000
      vertex   -4.444999e+001 3.809999e+001 6.350000e+000
    endloop
  endfacet
  facet normal 0.000000e+000 1.000000e+000 -0.000000e+000
    outer loop
      vertex   -4.444999e+001 3.809999e+001 6.350000e+000
      vertex   -5.079999e+001 3.809999e+001 0.000000e+000
      vertex   -5.079999e+001 3.809999e+001 6.350000e+000
    endloop
  endfacet
  facet normal -1.000000e+000 0.000000e+000 0.000000e+000
    outer loop
      vertex   -4.444999e+001 5.079999e+001 0.000000e+000
      vertex   -4.444999e+001 3.809999e+001 0.000000e+000
      vertex   -4.444999e+001 5.079999e+001 6.350000e+000
    endloop
  endfacet
  facet normal -1.000000e+000 -0.000000e+000 0.000000e+000
    outer loop
      vertex   -4.444999e+001 5.079999e+001 6.350000e+000
      vertex   -4.444999e+001 3.809999e+001 0.000000e+000
      vertex   -4.444999e+001 3.809999e+001 6.350000e+000
    endloop
  endfacet
  facet normal 0.000000e+000 1.000000e+000 -0.000000e+000
    outer loop
      vertex   -3.809999e+001 5.079999e+001 0.000000e+000
      vertex   -4.444999e+001 5.079999e+001 0.000000e+000
      vertex   -3.809999e+001 5.079999e+001 6.350000e+000
    endloop
  endfacet
  facet normal 0.000000e+000 1.000000e+000 -0.000000e+000
    outer loop
      vertex   -3.809999e+001 5.079999e+001 6.350000e+000
      vertex   -4.444999e+001 5.079999e+001 0.000000e+000
      vertex   -4.444999e+001 5.079999e+001 6.350000e+000
    endloop
  endfacet
  facet normal 1.000000e+000 0.000000e+000 -0.000000e+000
    outer loop
      vertex   -3.809999e+001 4.444999e+001 0.000000e+000
      vertex   -3.809999e+001 5.079999e+001 0.000000e+000
      vertex   -3.809999e+001 4.444999e+001 6.350000e+000
    endloop
  endfacet
  facet normal 1.000000e+000 -0.000000e+000 0.000000e+000
    outer loop
      vertex   -3.809999e+001 4.444999e+001 6.350000e+000
      vertex   -3.809999e+001 5.079999e+001 0.000000e+000
      vertex   -3.809999e+001 5.079999e+001 6.350000e+000
    endloop
  endfacet
  facet normal 0.000000e+000 1.000000e+000 -0.000000e+000
    outer loop
      vertex   -1.270000e+001 4.444999e+001 0.000000e+000
      vertex   -3.809999e+001 4.444999e+001 0.000000e+000
      vertex   -1.270000e+001 4.444999e+001 6.350000e+000
    endloop
  endfacet
  facet normal 0.000000e+000 1.000000e+000 -0.000000e+000
    outer loop
      vertex   -1.270000e+001 4.444999e+001 6.350000e+000
      vertex   -3.809999e+001 4.444999e+001 0.000000e+000
      vertex   -3.809999e+001 4.444999e+001 6.350000e+000
    endloop
  endfacet
  facet normal -1.000000e+000 0.000000e+000 0.000000e+000
    outer loop
      vertex   -1.270000e+001 5.079999e+001 0.000000e+000
      vertex   -1.270000e+001 4.444999e+001 0.000000e+000
      vertex   -1.270000e+001 5.079999e+001 6.350000e+000
    endloop
  endfacet
  facet normal -1.000000e+000 -0.000000e+000 0.000000e+000
    outer loop
      vertex   -1.270000e+001 5.079999e+001 6.350000e+000
      vertex   -1.270000e+001 4.444999e+001 0.000000e+000
      vertex   -1.270000e+001 4.444999e+001 6.350000e+000
    endloop
  endfacet
  facet normal 0.000000e+000 1.000000e+000 -0.000000e+000
    outer loop
      vertex   -6.349999e+000 5.079999e+001 0.000000e+000
      vertex   -1.270000e+001 5.079999e+001 0.000000e+000
      vertex   -6.349999e+000 5.079999e+001 6.350000e+000
    endloop
  endfacet
  facet normal 0.000000e+000 1.000000e+000 -0.000000e+000
    outer loop
      vertex   -6.349999e+000 5.079999e+001 6.350000e+000
      vertex   -1.270000e+001 5.079999e+001 0.000000e+000
      vertex   -1.270000e+001 5.079999e+001 6.350000e+000
    endloop
  endfacet
  facet normal 1.000000e+000 0.000000e+000 -0.000000e+000
    outer loop
      vertex   -6.349999e+000 3.809999e+001 0.000000e+000
      vertex   -6.349999e+000 5.079999e+001 0.000000e+000
      vertex   -6.349999e+000 3.809999e+001 6.350000e+000
    endloop
  endfacet
  facet normal 1.000000e+000 -0.000000e+000 0.000000e+000
    outer loop
      vertex   -6.349999e+000 3.809999e+001 6.350000e+000
      vertex   -6.349999e+000 5.079999e+001 0.000000e+000
      vertex   -6.349999e+000 5.079999e+001 6.350000e+000
    endloop
  endfacet
  facet normal 0.000000e+000 1.000000e+000 -0.000000e+000
    outer loop
      vertex   0.000000e+000 3.809999e+001 0.000000e+000
      vertex   -6.349999e+000 3.809999e+001 0.000000e+000
      vertex   0.000000e+000 3.809999e+001 6.350000e+000
    endloop
  endfacet
  facet normal 0.000000e+000 1.000000e+000 -0.000000e+000
    outer loop
      vertex   0.000000e+000 3.809999e+001 6.350000e+000
      vertex   -6.349999e+000 3.809999e+001 0.000000e+000
      vertex   -6.349999e+000 3.809999e+001 6.350000e+000
    endloop
  endfacet
  facet normal 1.000000e+000 0.000000e+000 -0.000000e+000
    outer loop
      vertex   0.000000e+000 1.270000e+001 0.000000e+000
      vertex   0.000000e+000 3.809999e+001 0.000000e+000
      vertex   0.000000e+000 1.270000e+001 6.350000e+000
    endloop
  endfacet
  facet normal 1.000000e+000 -0.000000e+000 0.000000e+000
    outer loop
      vertex   0.000000e+000 1.270000e+001 6.350000e+000
      vertex   0.000000e+000 3.809999e+001 0.000000e+000
      vertex   0.000000e+000 3.809999e+001 6.350000e+000
    endloop
  endfacet
  facet normal 0.000000e+000 0.000000e+000 1.000000e+000
    outer loop
      vertex   0.000000e+000 3.809999e+001 6.350000e+000
      vertex   -6.349999e+000 3.809999e+001 6.350000e+000
      vertex   0.000000e+000 1.270000e+001 6.350000e+000
    endloop
  endfacet
  facet normal 0.000000e+000 0.000000e+000 1.000000e+000
    outer loop
      vertex   0.000000e+000 1.270000e+001 6.350000e+000
      vertex   -6.349999e+000 3.809999e+001 6.350000e+000
      vertex   -6.349999e+000 1.270000e+001 6.350000e+000
    endloop
  endfacet
  facet normal 0.000000e+000 -0.000000e+000 1.000000e+000
    outer loop
      vertex   -6.349999e+000 1.270000e+001 6.350000e+000
      vertex   -6.349999e+000 3.809999e+001 6.350000e+000
      vertex   -3.809999e+001 4.444999e+001 6.350000e+000
    endloop
  endfacet
  facet normal 0.000000e+000 -0.000000e+000 1.000000e+000
    outer loop
      vertex   -4.444999e+001 3.809999e+001 6.350000e+000
      vertex   -3.809999e+001 4.444999e+001 6.350000e+000
      vertex   -4.444999e+001 5.079999e+001 6.350000e+000
    endloop
  endfacet
  facet normal -0.000000e+000 -0.000000e+000 1.000000e+000
    outer loop
      vertex   -4.444999e+001 3.809999e+001 6.350000e+000
      vertex   -6.349999e+000 1.270000e+001 6.350000e+000
      vertex   -3.809999e+001 4.444999e+001 6.350000e+000
    endloop
  endfacet
  facet normal -0.000000e+000 0.000000e+000 1.000000e+000
    outer loop
      vertex   -4.444999e+001 3.809999e+001 6.350000e+000
      vertex   -1.270000e+001 6.349999e+000 6.350000e+000
      vertex   -6.349999e+000 1.270000e+001 6.350000e+000
    endloop
  endfacet
  facet normal 0.000000e+000 0.000000e+000 1.000000e+000
    outer loop
      vertex   -4.444999e+001 3.809999e+001 6.350000e+000
      vertex   -4.444999e+001 1.270000e+001 6.350000e+000
      vertex   -1.270000e+001 6.349999e+000 6.350000e+000
    endloop
  endfacet
  facet normal 0.000000e+000 0.000000e+000 1.000000e+000
    outer loop
      vertex   -4.444999e+001 3.809999e+001 6.350000e+000
      vertex   -5.079999e+001 3.809999e+001 6.350000e+000
      vertex   -4.444999e+001 1.270000e+001 6.350000e+000
    endloop
  endfacet
  facet normal 0.000000e+000 0.000000e+000 1.000000e+000
    outer loop
      vertex   -4.444999e+001 1.270000e+001 6.350000e+000
      vertex   -5.079999e+001 3.809999e+001 6.350000e+000
      vertex   -5.079999e+001 1.270000e+001 6.350000e+000
    endloop
  endfacet
  facet normal -0.000000e+000 -0.000000e+000 1.000000e+000
    outer loop
      vertex   -3.809999e+001 4.444999e+001 6.350000e+000
      vertex   -6.349999e+000 3.809999e+001 6.350000e+000
      vertex   -1.270000e+001 4.444999e+001 6.350000e+000
    endloop
  endfacet
  facet normal -0.000000e+000 0.000000e+000 1.000000e+000
    outer loop
      vertex   -1.270000e+001 4.444999e+001 6.350000e+000
      vertex   -6.349999e+000 3.809999e+001 6.350000e+000
      vertex   -6.349999e+000 5.079999e+001 6.350000e+000
    endloop
  endfacet
  facet normal -0.000000e+000 0.000000e+000 1.000000e+000
    outer loop
      vertex   -1.270000e+001 5.079999e+001 6.350000e+000
      vertex   -1.270000e+001 4.444999e+001 6.350000e+000
      vertex   -6.349999e+000 5.079999e+001 6.350000e+000
    endloop
  endfacet
  facet normal 0.000000e+000 -0.000000e+000 1.000000e+000
    outer loop
      vertex   -3.809999e+001 4.444999e+001 6.350000e+000
      vertex   -3.809999e+001 5.079999e+001 6.350000e+000
      vertex   -4.444999e+001 5.079999e+001 6.350000e+000
    endloop
  endfacet
  facet normal 0.000000e+000 0.000000e+000 1.000000e+000
    outer loop
      vertex   -1.270000e+001 6.349999e+000 6.350000e+000
      vertex   -4.444999e+001 1.270000e+001 6.350000e+000
      vertex   -3.809999e+001 6.349999e+000 6.350000e+000
    endloop
  endfacet
  facet normal 0.000000e+000 0.000000e+000 1.000000e+000
    outer loop
      vertex   -3.809999e+001 6.349999e+000 6.350000e+000
      vertex   -4.444999e+001 1.270000e+001 6.350000e+000
      vertex   -4.444999e+001 0.000000e+000 6.350000e+000
    endloop
  endfacet
  facet normal 0.000000e+000 -0.000000e+000 1.000000e+000
    outer loop
      vertex   -3.809999e+001 0.000000e+000 6.350000e+000
      vertex   -3.809999e+001 6.349999e+000 6.350000e+000
      vertex   -4.444999e+001 0.000000e+000 6.350000e+000
    endloop
  endfacet
  facet normal 0.000000e+000 -0.000000e+000 1.000000e+000
    outer loop
      vertex   -1.270000e+001 0.000000e+000 6.350000e+000
      vertex   -6.349999e+000 0.000000e+000 6.350000e+000
      vertex   -1.270000e+001 6.349999e+000 6.350000e+000
    endloop
  endfacet
  facet normal -0.000000e+000 0.000000e+000 1.000000e+000
    outer loop
      vertex   -1.270000e+001 6.349999e+000 6.350000e+000
      vertex   -6.349999e+000 0.000000e+000 6.350000e+000
      vertex   -6.349999e+000 1.270000e+001 6.350000e+000
    endloop
  endfacet
  facet normal 0.000000e+000 0.000000e+000 -1.000000e+000
    outer loop
      vertex   0.000000e+000 1.270000e+001 0.000000e+000
      vertex   -6.349999e+000 1.270000e+001 0.000000e+000
      vertex   0.000000e+000 3.809999e+001 0.000000e+000
    endloop
  endfacet
  facet normal -0.000000e+000 0.000000e+000 -1.000000e+000
    outer loop
      vertex   0.000000e+000 3.809999e+001 0.000000e+000
      vertex   -6.349999e+000 1.270000e+001 0.000000e+000
      vertex   -6.349999e+000 3.809999e+001 0.000000e+000
    endloop
  endfacet
  facet normal 0.000000e+000 -0.000000e+000 -1.000000e+000
    outer loop
      vertex   -6.349999e+000 3.809999e+001 0.000000e+000
      vertex   -6.349999e+000 1.270000e+001 0.000000e+000
      vertex   -3.809999e+001 6.349999e+000 0.000000e+000
    endloop
  endfacet
  facet normal 0.000000e+000 -0.000000e+000 -1.000000e+000
    outer loop
      vertex   -4.444999e+001 1.270000e+001 0.000000e+000
      vertex   -3.809999e+001 6.349999e+000 0.000000e+000
      vertex   -4.444999e+001 0.000000e+000 0.000000e+000
    endloop
  endfacet
  facet normal 0.000000e+000 -0.000000e+000 -1.000000e+000
    outer loop
      vertex   -4.444999e+001 1.270000e+001 0.000000e+000
      vertex   -6.349999e+000 3.809999e+001 0.000000e+000
      vertex   -3.809999e+001 6.349999e+000 0.000000e+000
    endloop
  endfacet
  facet normal 0.000000e+000 0.000000e+000 -1.000000e+000
    outer loop
      vertex   -4.444999e+001 1.270000e+001 0.000000e+000
      vertex   -1.270000e+001 4.444999e+001 0.000000e+000
      vertex   -6.349999e+000 3.809999e+001 0.000000e+000
    endloop
  endfacet
  facet normal 0.000000e+000 0.000000e+000 -1.000000e+000
    outer loop
      vertex   -4.444999e+001 1.270000e+001 0.000000e+000
      vertex   -4.444999e+001 3.809999e+001 0.000000e+000
      vertex   -1.270000e+001 4.444999e+001 0.000000e+000
    endloop
  endfacet
  facet normal 0.000000e+000 0.000000e+000 -1.000000e+000
    outer loop
      vertex   -4.444999e+001 1.270000e+001 0.000000e+000
      vertex   -5.079999e+001 1.270000e+001 0.000000e+000
      vertex   -4.444999e+001 3.809999e+001 0.000000e+000
    endloop
  endfacet
  facet normal -0.000000e+000 0.000000e+000 -1.000000e+000
    outer loop
      vertex   -4.444999e+001 3.809999e+001 0.000000e+000
      vertex   -5.079999e+001 1.270000e+001 0.000000e+000
      vertex   -5.079999e+001 3.809999e+001 0.000000e+000
    endloop
  endfacet
  facet normal 0.000000e+000 -0.000000e+000 -1.000000e+000
    outer loop
      vertex   -3.809999e+001 6.349999e+000 0.000000e+000
      vertex   -6.349999e+000 1.270000e+001 0.000000e+000
      vertex   -1.270000e+001 6.349999e+000 0.000000e+000
    endloop
  endfacet
  facet normal 0.000000e+000 0.000000e+000 -1.000000e+000
    outer loop
      vertex   -1.270000e+001 6.349999e+000 0.000000e+000
      vertex   -6.349999e+000 1.270000e+001 0.000000e+000
      vertex   -6.349999e+000 0.000000e+000 0.000000e+000
    endloop
  endfacet
  facet normal 0.000000e+000 0.000000e+000 -1.000000e+000
    outer loop
      vertex   -1.270000e+001 0.000000e+000 0.000000e+000
      vertex   -1.270000e+001 6.349999e+000 0.000000e+000
      vertex   -6.349999e+000 0.000000e+000 0.000000e+000
    endloop
  endfacet
  facet normal -0.000000e+000 -0.000000e+000 -1.000000e+000
    outer loop
      vertex   -3.809999e+001 6.349999e+000 0.000000e+000
      vertex   -3.809999e+001 0.000000e+000 0.000000e+000
      vertex   -4.444999e+001 0.000000e+000 0.000000e+000
    endloop
  endfacet
  facet normal -0.000000e+000 0.000000e+000 -1.000000e+000
    outer loop
      vertex   -1.270000e+001 4.444999e+001 0.000000e+000
      vertex   -4.444999e+001 3.809999e+001 0.000000e+000
      vertex   -3.809999e+001 4.444999e+001 0.000000e+000
    endloop
  endfacet
  facet normal -0.000000e+000 0.000000e+000 -1.000000e+000
    outer loop
      vertex   -3.809999e+001 4.444999e+001 0.000000e+000
      vertex   -4.444999e+001 3.809999e+001 0.000000e+000
      vertex   -4.444999e+001 5.079999e+001 0.000000e+000
    endloop
  endfacet
  facet normal -0.000000e+000 -0.000000e+000 -1.000000e+000
    outer loop
      vertex   -3.809999e+001 5.079999e+001 0.000000e+000
      vertex   -3.809999e+001 4.444999e+001 0.000000e+000
      vertex   -4.444999e+001 5.079999e+001 0.000000e+000
    endloop
  endfacet
  facet normal 0.000000e+000 -0.000000e+000 -1.000000e+000
    outer loop
      vertex   -1.270000e+001 5.079999e+001 0.000000e+000
      vertex   -6.349999e+000 5.079999e+001 0.000000e+000
      vertex   -1.270000e+001 4.444999e+001 0.000000e+000
    endloop
  endfacet
  facet normal 0.000000e+000 0.000000e+000 -1.000000e+000
    outer loop
      vertex   -1.270000e+001 4.444999e+001 0.000000e+000
      vertex   -6.349999e+000 5.079999e+001 0.000000e+000
      vertex   -6.349999e+000 3.809999e+001 0.000000e+000
    endloop
  endfacet
endsolid
