solid ascii
  facet normal -1.000000e+000 0.000000e+000 0.000000e+000
    outer loop
      vertex   -7.619998e+001 7.619995e+001 0.000000e+000
      vertex   -7.619998e+001 6.349996e+001 0.000000e+000
      vertex   -7.619998e+001 7.619995e+001 1.270000e+001
    endloop
  endfacet
  facet normal -1.000000e+000 -0.000000e+000 0.000000e+000
    outer loop
      vertex   -7.619998e+001 7.619995e+001 1.270000e+001
      vertex   -7.619998e+001 6.349996e+001 0.000000e+000
      vertex   -7.619998e+001 6.349996e+001 1.270000e+001
    endloop
  endfacet
  facet normal 0.000000e+000 1.000000e+000 -0.000000e+000
    outer loop
      vertex   -5.079998e+001 7.619995e+001 0.000000e+000
      vertex   -7.619998e+001 7.619995e+001 0.000000e+000
      vertex   -5.079998e+001 7.619995e+001 1.270000e+001
    endloop
  endfacet
  facet normal 0.000000e+000 1.000000e+000 -0.000000e+000
    outer loop
      vertex   -5.079998e+001 7.619995e+001 1.270000e+001
      vertex   -7.619998e+001 7.619995e+001 0.000000e+000
      vertex   -7.619998e+001 7.619995e+001 1.270000e+001
    endloop
  endfacet
  facet normal 1.000000e+000 0.000000e+000 -0.000000e+000
    outer loop
      vertex   -5.079998e+001 6.349996e+001 0.000000e+000
      vertex   -5.079998e+001 7.619995e+001 0.000000e+000
      vertex   -5.079998e+001 6.349996e+001 1.270000e+001
    endloop
  endfacet
  facet normal 1.000000e+000 -0.000000e+000 0.000000e+000
    outer loop
      vertex   -5.079998e+001 6.349996e+001 1.270000e+001
      vertex   -5.079998e+001 7.619995e+001 0.000000e+000
      vertex   -5.079998e+001 7.619995e+001 1.270000e+001
    endloop
  endfacet
  facet normal 0.000000e+000 1.000000e+000 -0.000000e+000
    outer loop
      vertex   -3.809999e+001 6.349996e+001 0.000000e+000
      vertex   -5.079998e+001 6.349996e+001 0.000000e+000
      vertex   -3.809999e+001 6.349996e+001 1.270000e+001
    endloop
  endfacet
  facet normal 0.000000e+000 1.000000e+000 -0.000000e+000
    outer loop
      vertex   -3.809999e+001 6.349996e+001 1.270000e+001
      vertex   -5.079998e+001 6.349996e+001 0.000000e+000
      vertex   -5.079998e+001 6.349996e+001 1.270000e+001
    endloop
  endfacet
  facet normal -1.000000e+000 0.000000e+000 0.000000e+000
    outer loop
      vertex   -3.809999e+001 7.619995e+001 0.000000e+000
      vertex   -3.809999e+001 6.349996e+001 0.000000e+000
      vertex   -3.809999e+001 7.619995e+001 1.270000e+001
    endloop
  endfacet
  facet normal -1.000000e+000 -0.000000e+000 0.000000e+000
    outer loop
      vertex   -3.809999e+001 7.619995e+001 1.270000e+001
      vertex   -3.809999e+001 6.349996e+001 0.000000e+000
      vertex   -3.809999e+001 6.349996e+001 1.270000e+001
    endloop
  endfacet
  facet normal 0.000000e+000 1.000000e+000 -0.000000e+000
    outer loop
      vertex   -2.539999e+001 7.619995e+001 0.000000e+000
      vertex   -3.809999e+001 7.619995e+001 0.000000e+000
      vertex   -2.539999e+001 7.619995e+001 1.270000e+001
    endloop
  endfacet
  facet normal 0.000000e+000 1.000000e+000 -0.000000e+000
    outer loop
      vertex   -2.539999e+001 7.619995e+001 1.270000e+001
      vertex   -3.809999e+001 7.619995e+001 0.000000e+000
      vertex   -3.809999e+001 7.619995e+001 1.270000e+001
    endloop
  endfacet
  facet normal 1.000000e+000 0.000000e+000 -0.000000e+000
    outer loop
      vertex   -2.539999e+001 6.349996e+001 0.000000e+000
      vertex   -2.539999e+001 7.619995e+001 0.000000e+000
      vertex   -2.539999e+001 6.349996e+001 1.270000e+001
    endloop
  endfacet
  facet normal 1.000000e+000 -0.000000e+000 0.000000e+000
    outer loop
      vertex   -2.539999e+001 6.349996e+001 1.270000e+001
      vertex   -2.539999e+001 7.619995e+001 0.000000e+000
      vertex   -2.539999e+001 7.619995e+001 1.270000e+001
    endloop
  endfacet
  facet normal 0.000000e+000 1.000000e+000 -0.000000e+000
    outer loop
      vertex   -1.269999e+001 6.349996e+001 0.000000e+000
      vertex   -2.539999e+001 6.349996e+001 0.000000e+000
      vertex   -1.269999e+001 6.349996e+001 1.270000e+001
    endloop
  endfacet
  facet normal 0.000000e+000 1.000000e+000 -0.000000e+000
    outer loop
      vertex   -1.269999e+001 6.349996e+001 1.270000e+001
      vertex   -2.539999e+001 6.349996e+001 0.000000e+000
      vertex   -2.539999e+001 6.349996e+001 1.270000e+001
    endloop
  endfacet
  facet normal 1.000000e+000 0.000000e+000 -0.000000e+000
    outer loop
      vertex   -1.269999e+001 5.079996e+001 0.000000e+000
      vertex   -1.269999e+001 6.349996e+001 0.000000e+000
      vertex   -1.269999e+001 5.079996e+001 1.270000e+001
    endloop
  endfacet
  facet normal 1.000000e+000 -0.000000e+000 0.000000e+000
    outer loop
      vertex   -1.269999e+001 5.079996e+001 1.270000e+001
      vertex   -1.269999e+001 6.349996e+001 0.000000e+000
      vertex   -1.269999e+001 6.349996e+001 1.270000e+001
    endloop
  endfacet
  facet normal 0.000000e+000 1.000000e+000 -0.000000e+000
    outer loop
      vertex   5.149841e-006 5.079996e+001 0.000000e+000
      vertex   -1.269999e+001 5.079996e+001 0.000000e+000
      vertex   5.149841e-006 5.079996e+001 1.270000e+001
    endloop
  endfacet
  facet normal 0.000000e+000 1.000000e+000 -0.000000e+000
    outer loop
      vertex   5.149841e-006 5.079996e+001 1.270000e+001
      vertex   -1.269999e+001 5.079996e+001 0.000000e+000
      vertex   -1.269999e+001 5.079996e+001 1.270000e+001
    endloop
  endfacet
  facet normal 1.000000e+000 0.000000e+000 -0.000000e+000
    outer loop
      vertex   5.149841e-006 3.809996e+001 0.000000e+000
      vertex   5.149841e-006 5.079996e+001 0.000000e+000
      vertex   5.149841e-006 3.809996e+001 1.270000e+001
    endloop
  endfacet
  facet normal 1.000000e+000 -0.000000e+000 0.000000e+000
    outer loop
      vertex   5.149841e-006 3.809996e+001 1.270000e+001
      vertex   5.149841e-006 5.079996e+001 0.000000e+000
      vertex   5.149841e-006 5.079996e+001 1.270000e+001
    endloop
  endfacet
  facet normal 0.000000e+000 -1.000000e+000 0.000000e+000
    outer loop
      vertex   -1.269999e+001 3.809996e+001 0.000000e+000
      vertex   5.149841e-006 3.809996e+001 0.000000e+000
      vertex   -1.269999e+001 3.809996e+001 1.270000e+001
    endloop
  endfacet
  facet normal 0.000000e+000 -1.000000e+000 0.000000e+000
    outer loop
      vertex   -1.269999e+001 3.809996e+001 1.270000e+001
      vertex   5.149841e-006 3.809996e+001 0.000000e+000
      vertex   5.149841e-006 3.809996e+001 1.270000e+001
    endloop
  endfacet
  facet normal 1.000000e+000 0.000000e+000 -0.000000e+000
    outer loop
      vertex   -1.269999e+001 2.539997e+001 0.000000e+000
      vertex   -1.269999e+001 3.809996e+001 0.000000e+000
      vertex   -1.269999e+001 2.539997e+001 1.270000e+001
    endloop
  endfacet
  facet normal 1.000000e+000 -0.000000e+000 0.000000e+000
    outer loop
      vertex   -1.269999e+001 2.539997e+001 1.270000e+001
      vertex   -1.269999e+001 3.809996e+001 0.000000e+000
      vertex   -1.269999e+001 3.809996e+001 1.270000e+001
    endloop
  endfacet
  facet normal 0.000000e+000 1.000000e+000 -0.000000e+000
    outer loop
      vertex   5.149841e-006 2.539997e+001 0.000000e+000
      vertex   -1.269999e+001 2.539997e+001 0.000000e+000
      vertex   5.149841e-006 2.539997e+001 1.270000e+001
    endloop
  endfacet
  facet normal 0.000000e+000 1.000000e+000 -0.000000e+000
    outer loop
      vertex   5.149841e-006 2.539997e+001 1.270000e+001
      vertex   -1.269999e+001 2.539997e+001 0.000000e+000
      vertex   -1.269999e+001 2.539997e+001 1.270000e+001
    endloop
  endfacet
  facet normal 1.000000e+000 0.000000e+000 -0.000000e+000
    outer loop
      vertex   5.149841e-006 1.269997e+001 0.000000e+000
      vertex   5.149841e-006 2.539997e+001 0.000000e+000
      vertex   5.149841e-006 1.269997e+001 1.270000e+001
    endloop
  endfacet
  facet normal 1.000000e+000 -0.000000e+000 0.000000e+000
    outer loop
      vertex   5.149841e-006 1.269997e+001 1.270000e+001
      vertex   5.149841e-006 2.539997e+001 0.000000e+000
      vertex   5.149841e-006 2.539997e+001 1.270000e+001
    endloop
  endfacet
  facet normal 0.000000e+000 -1.000000e+000 0.000000e+000
    outer loop
      vertex   -1.269999e+001 1.269997e+001 0.000000e+000
      vertex   5.149841e-006 1.269997e+001 0.000000e+000
      vertex   -1.269999e+001 1.269997e+001 1.270000e+001
    endloop
  endfacet
  facet normal 0.000000e+000 -1.000000e+000 0.000000e+000
    outer loop
      vertex   -1.269999e+001 1.269997e+001 1.270000e+001
      vertex   5.149841e-006 1.269997e+001 0.000000e+000
      vertex   5.149841e-006 1.269997e+001 1.270000e+001
    endloop
  endfacet
  facet normal 1.000000e+000 0.000000e+000 -0.000000e+000
    outer loop
      vertex   -1.269999e+001 -2.961159e-005 0.000000e+000
      vertex   -1.269999e+001 1.269997e+001 0.000000e+000
      vertex   -1.269999e+001 -2.961159e-005 1.270000e+001
    endloop
  endfacet
  facet normal 1.000000e+000 -0.000000e+000 0.000000e+000
    outer loop
      vertex   -1.269999e+001 -2.961159e-005 1.270000e+001
      vertex   -1.269999e+001 1.269997e+001 0.000000e+000
      vertex   -1.269999e+001 1.269997e+001 1.270000e+001
    endloop
  endfacet
  facet normal 0.000000e+000 -1.000000e+000 0.000000e+000
    outer loop
      vertex   -2.539999e+001 -2.961159e-005 0.000000e+000
      vertex   -1.269999e+001 -2.961159e-005 0.000000e+000
      vertex   -2.539999e+001 -2.961159e-005 1.270000e+001
    endloop
  endfacet
  facet normal 0.000000e+000 -1.000000e+000 0.000000e+000
    outer loop
      vertex   -2.539999e+001 -2.961159e-005 1.270000e+001
      vertex   -1.269999e+001 -2.961159e-005 0.000000e+000
      vertex   -1.269999e+001 -2.961159e-005 1.270000e+001
    endloop
  endfacet
  facet normal -1.000000e+000 0.000000e+000 0.000000e+000
    outer loop
      vertex   -2.539999e+001 1.269997e+001 0.000000e+000
      vertex   -2.539999e+001 -2.961159e-005 0.000000e+000
      vertex   -2.539999e+001 1.269997e+001 1.270000e+001
    endloop
  endfacet
  facet normal -1.000000e+000 -0.000000e+000 0.000000e+000
    outer loop
      vertex   -2.539999e+001 1.269997e+001 1.270000e+001
      vertex   -2.539999e+001 -2.961159e-005 0.000000e+000
      vertex   -2.539999e+001 -2.961159e-005 1.270000e+001
    endloop
  endfacet
  facet normal 0.000000e+000 -1.000000e+000 0.000000e+000
    outer loop
      vertex   -3.809999e+001 1.269997e+001 0.000000e+000
      vertex   -2.539999e+001 1.269997e+001 0.000000e+000
      vertex   -3.809999e+001 1.269997e+001 1.270000e+001
    endloop
  endfacet
  facet normal 0.000000e+000 -1.000000e+000 0.000000e+000
    outer loop
      vertex   -3.809999e+001 1.269997e+001 1.270000e+001
      vertex   -2.539999e+001 1.269997e+001 0.000000e+000
      vertex   -2.539999e+001 1.269997e+001 1.270000e+001
    endloop
  endfacet
  facet normal 1.000000e+000 0.000000e+000 -0.000000e+000
    outer loop
      vertex   -3.809999e+001 -2.961159e-005 0.000000e+000
      vertex   -3.809999e+001 1.269997e+001 0.000000e+000
      vertex   -3.809999e+001 -2.961159e-005 1.270000e+001
    endloop
  endfacet
  facet normal 1.000000e+000 -0.000000e+000 0.000000e+000
    outer loop
      vertex   -3.809999e+001 -2.961159e-005 1.270000e+001
      vertex   -3.809999e+001 1.269997e+001 0.000000e+000
      vertex   -3.809999e+001 1.269997e+001 1.270000e+001
    endloop
  endfacet
  facet normal 0.000000e+000 -1.000000e+000 0.000000e+000
    outer loop
      vertex   -5.079998e+001 -2.961159e-005 0.000000e+000
      vertex   -3.809999e+001 -2.961159e-005 0.000000e+000
      vertex   -5.079998e+001 -2.961159e-005 1.270000e+001
    endloop
  endfacet
  facet normal 0.000000e+000 -1.000000e+000 0.000000e+000
    outer loop
      vertex   -5.079998e+001 -2.961159e-005 1.270000e+001
      vertex   -3.809999e+001 -2.961159e-005 0.000000e+000
      vertex   -3.809999e+001 -2.961159e-005 1.270000e+001
    endloop
  endfacet
  facet normal -1.000000e+000 0.000000e+000 0.000000e+000
    outer loop
      vertex   -5.079998e+001 1.269997e+001 0.000000e+000
      vertex   -5.079998e+001 -2.961159e-005 0.000000e+000
      vertex   -5.079998e+001 1.269997e+001 1.270000e+001
    endloop
  endfacet
  facet normal -1.000000e+000 -0.000000e+000 0.000000e+000
    outer loop
      vertex   -5.079998e+001 1.269997e+001 1.270000e+001
      vertex   -5.079998e+001 -2.961159e-005 0.000000e+000
      vertex   -5.079998e+001 -2.961159e-005 1.270000e+001
    endloop
  endfacet
  facet normal 0.000000e+000 -1.000000e+000 0.000000e+000
    outer loop
      vertex   -7.619998e+001 1.269997e+001 0.000000e+000
      vertex   -5.079998e+001 1.269997e+001 0.000000e+000
      vertex   -7.619998e+001 1.269997e+001 1.270000e+001
    endloop
  endfacet
  facet normal 0.000000e+000 -1.000000e+000 0.000000e+000
    outer loop
      vertex   -7.619998e+001 1.269997e+001 1.270000e+001
      vertex   -5.079998e+001 1.269997e+001 0.000000e+000
      vertex   -5.079998e+001 1.269997e+001 1.270000e+001
    endloop
  endfacet
  facet normal -1.000000e+000 0.000000e+000 0.000000e+000
    outer loop
      vertex   -7.619998e+001 2.539997e+001 0.000000e+000
      vertex   -7.619998e+001 1.269997e+001 0.000000e+000
      vertex   -7.619998e+001 2.539997e+001 1.270000e+001
    endloop
  endfacet
  facet normal -1.000000e+000 -0.000000e+000 0.000000e+000
    outer loop
      vertex   -7.619998e+001 2.539997e+001 1.270000e+001
      vertex   -7.619998e+001 1.269997e+001 0.000000e+000
      vertex   -7.619998e+001 1.269997e+001 1.270000e+001
    endloop
  endfacet
  facet normal 0.000000e+000 1.000000e+000 -0.000000e+000
    outer loop
      vertex   -6.349998e+001 2.539997e+001 0.000000e+000
      vertex   -7.619998e+001 2.539997e+001 0.000000e+000
      vertex   -6.349998e+001 2.539997e+001 1.270000e+001
    endloop
  endfacet
  facet normal 0.000000e+000 1.000000e+000 -0.000000e+000
    outer loop
      vertex   -6.349998e+001 2.539997e+001 1.270000e+001
      vertex   -7.619998e+001 2.539997e+001 0.000000e+000
      vertex   -7.619998e+001 2.539997e+001 1.270000e+001
    endloop
  endfacet
  facet normal -1.000000e+000 0.000000e+000 0.000000e+000
    outer loop
      vertex   -6.349998e+001 3.809996e+001 0.000000e+000
      vertex   -6.349998e+001 2.539997e+001 0.000000e+000
      vertex   -6.349998e+001 3.809996e+001 1.270000e+001
    endloop
  endfacet
  facet normal -1.000000e+000 -0.000000e+000 0.000000e+000
    outer loop
      vertex   -6.349998e+001 3.809996e+001 1.270000e+001
      vertex   -6.349998e+001 2.539997e+001 0.000000e+000
      vertex   -6.349998e+001 2.539997e+001 1.270000e+001
    endloop
  endfacet
  facet normal 0.000000e+000 -1.000000e+000 0.000000e+000
    outer loop
      vertex   -7.619998e+001 3.809996e+001 0.000000e+000
      vertex   -6.349998e+001 3.809996e+001 0.000000e+000
      vertex   -7.619998e+001 3.809996e+001 1.270000e+001
    endloop
  endfacet
  facet normal 0.000000e+000 -1.000000e+000 0.000000e+000
    outer loop
      vertex   -7.619998e+001 3.809996e+001 1.270000e+001
      vertex   -6.349998e+001 3.809996e+001 0.000000e+000
      vertex   -6.349998e+001 3.809996e+001 1.270000e+001
    endloop
  endfacet
  facet normal -1.000000e+000 0.000000e+000 0.000000e+000
    outer loop
      vertex   -7.619998e+001 5.079996e+001 0.000000e+000
      vertex   -7.619998e+001 3.809996e+001 0.000000e+000
      vertex   -7.619998e+001 5.079996e+001 1.270000e+001
    endloop
  endfacet
  facet normal -1.000000e+000 -0.000000e+000 0.000000e+000
    outer loop
      vertex   -7.619998e+001 5.079996e+001 1.270000e+001
      vertex   -7.619998e+001 3.809996e+001 0.000000e+000
      vertex   -7.619998e+001 3.809996e+001 1.270000e+001
    endloop
  endfacet
  facet normal 0.000000e+000 1.000000e+000 -0.000000e+000
    outer loop
      vertex   -6.349998e+001 5.079996e+001 0.000000e+000
      vertex   -7.619998e+001 5.079996e+001 0.000000e+000
      vertex   -6.349998e+001 5.079996e+001 1.270000e+001
    endloop
  endfacet
  facet normal 0.000000e+000 1.000000e+000 -0.000000e+000
    outer loop
      vertex   -6.349998e+001 5.079996e+001 1.270000e+001
      vertex   -7.619998e+001 5.079996e+001 0.000000e+000
      vertex   -7.619998e+001 5.079996e+001 1.270000e+001
    endloop
  endfacet
  facet normal -1.000000e+000 0.000000e+000 0.000000e+000
    outer loop
      vertex   -6.349998e+001 6.349996e+001 0.000000e+000
      vertex   -6.349998e+001 5.079996e+001 0.000000e+000
      vertex   -6.349998e+001 6.349996e+001 1.270000e+001
    endloop
  endfacet
  facet normal -1.000000e+000 -0.000000e+000 0.000000e+000
    outer loop
      vertex   -6.349998e+001 6.349996e+001 1.270000e+001
      vertex   -6.349998e+001 5.079996e+001 0.000000e+000
      vertex   -6.349998e+001 5.079996e+001 1.270000e+001
    endloop
  endfacet
  facet normal 0.000000e+000 -1.000000e+000 0.000000e+000
    outer loop
      vertex   -7.619998e+001 6.349996e+001 0.000000e+000
      vertex   -6.349998e+001 6.349996e+001 0.000000e+000
      vertex   -7.619998e+001 6.349996e+001 1.270000e+001
    endloop
  endfacet
  facet normal 0.000000e+000 -1.000000e+000 0.000000e+000
    outer loop
      vertex   -7.619998e+001 6.349996e+001 1.270000e+001
      vertex   -6.349998e+001 6.349996e+001 0.000000e+000
      vertex   -6.349998e+001 6.349996e+001 1.270000e+001
    endloop
  endfacet
  facet normal 0.000000e+000 -0.000000e+000 1.000000e+000
    outer loop
      vertex   -7.619998e+001 6.349996e+001 1.270000e+001
      vertex   -6.349998e+001 6.349996e+001 1.270000e+001
      vertex   -7.619998e+001 7.619995e+001 1.270000e+001
    endloop
  endfacet
  facet normal -0.000000e+000 0.000000e+000 1.000000e+000
    outer loop
      vertex   -7.619998e+001 7.619995e+001 1.270000e+001
      vertex   -6.349998e+001 6.349996e+001 1.270000e+001
      vertex   -5.079998e+001 7.619995e+001 1.270000e+001
    endloop
  endfacet
  facet normal -0.000000e+000 0.000000e+000 1.000000e+000
    outer loop
      vertex   -5.079998e+001 7.619995e+001 1.270000e+001
      vertex   -6.349998e+001 6.349996e+001 1.270000e+001
      vertex   -5.079998e+001 6.349996e+001 1.270000e+001
    endloop
  endfacet
  facet normal 0.000000e+000 0.000000e+000 1.000000e+000
    outer loop
      vertex   -5.079998e+001 6.349996e+001 1.270000e+001
      vertex   -6.349998e+001 6.349996e+001 1.270000e+001
      vertex   -6.349998e+001 5.079996e+001 1.270000e+001
    endloop
  endfacet
  facet normal 0.000000e+000 0.000000e+000 1.000000e+000
    outer loop
      vertex   -3.809999e+001 3.809996e+001 1.270000e+001
      vertex   -6.349998e+001 5.079996e+001 1.270000e+001
      vertex   -6.349998e+001 3.809996e+001 1.270000e+001
    endloop
  endfacet
  facet normal 0.000000e+000 -0.000000e+000 1.000000e+000
    outer loop
      vertex   -6.349998e+001 2.539997e+001 1.270000e+001
      vertex   -3.809999e+001 3.809996e+001 1.270000e+001
      vertex   -6.349998e+001 3.809996e+001 1.270000e+001
    endloop
  endfacet
  facet normal -0.000000e+000 0.000000e+000 1.000000e+000
    outer loop
      vertex   -6.349998e+001 2.539997e+001 1.270000e+001
      vertex   -5.079998e+001 1.269997e+001 1.270000e+001
      vertex   -3.809999e+001 3.809996e+001 1.270000e+001
    endloop
  endfacet
  facet normal -0.000000e+000 0.000000e+000 1.000000e+000
    outer loop
      vertex   -6.349998e+001 2.539997e+001 1.270000e+001
      vertex   -7.619998e+001 1.269997e+001 1.270000e+001
      vertex   -5.079998e+001 1.269997e+001 1.270000e+001
    endloop
  endfacet
  facet normal 0.000000e+000 0.000000e+000 1.000000e+000
    outer loop
      vertex   -6.349998e+001 2.539997e+001 1.270000e+001
      vertex   -7.619998e+001 2.539997e+001 1.270000e+001
      vertex   -7.619998e+001 1.269997e+001 1.270000e+001
    endloop
  endfacet
  facet normal 0.000000e+000 0.000000e+000 1.000000e+000
    outer loop
      vertex   -6.349998e+001 5.079996e+001 1.270000e+001
      vertex   -7.619998e+001 5.079996e+001 1.270000e+001
      vertex   -6.349998e+001 3.809996e+001 1.270000e+001
    endloop
  endfacet
  facet normal 0.000000e+000 0.000000e+000 1.000000e+000
    outer loop
      vertex   -6.349998e+001 3.809996e+001 1.270000e+001
      vertex   -7.619998e+001 5.079996e+001 1.270000e+001
      vertex   -7.619998e+001 3.809996e+001 1.270000e+001
    endloop
  endfacet
  facet normal 0.000000e+000 -0.000000e+000 1.000000e+000
    outer loop
      vertex   -5.079998e+001 -2.961159e-005 1.270000e+001
      vertex   -3.809999e+001 -2.961159e-005 1.270000e+001
      vertex   -5.079998e+001 1.269997e+001 1.270000e+001
    endloop
  endfacet
  facet normal -0.000000e+000 0.000000e+000 1.000000e+000
    outer loop
      vertex   -5.079998e+001 1.269997e+001 1.270000e+001
      vertex   -3.809999e+001 -2.961159e-005 1.270000e+001
      vertex   -3.809999e+001 1.269997e+001 1.270000e+001
    endloop
  endfacet
  facet normal -0.000000e+000 0.000000e+000 1.000000e+000
    outer loop
      vertex   -3.809999e+001 3.809996e+001 1.270000e+001
      vertex   -3.809999e+001 1.269997e+001 1.270000e+001
      vertex   -2.539999e+001 1.269997e+001 1.270000e+001
    endloop
  endfacet
  facet normal -0.000000e+000 0.000000e+000 1.000000e+000
    outer loop
      vertex   -1.269999e+001 2.539997e+001 1.270000e+001
      vertex   -2.539999e+001 1.269997e+001 1.270000e+001
      vertex   -1.269999e+001 1.269997e+001 1.270000e+001
    endloop
  endfacet
  facet normal 0.000000e+000 0.000000e+000 1.000000e+000
    outer loop
      vertex   5.149841e-006 1.269997e+001 1.270000e+001
      vertex   -1.269999e+001 2.539997e+001 1.270000e+001
      vertex   -1.269999e+001 1.269997e+001 1.270000e+001
    endloop
  endfacet
  facet normal 0.000000e+000 -0.000000e+000 1.000000e+000
    outer loop
      vertex   5.149841e-006 1.269997e+001 1.270000e+001
      vertex   5.149841e-006 2.539997e+001 1.270000e+001
      vertex   -1.269999e+001 2.539997e+001 1.270000e+001
    endloop
  endfacet
  facet normal 0.000000e+000 0.000000e+000 1.000000e+000
    outer loop
      vertex   -5.079998e+001 1.269997e+001 1.270000e+001
      vertex   -3.809999e+001 1.269997e+001 1.270000e+001
      vertex   -3.809999e+001 3.809996e+001 1.270000e+001
    endloop
  endfacet
  facet normal 0.000000e+000 -0.000000e+000 1.000000e+000
    outer loop
      vertex   -2.539999e+001 -2.961159e-005 1.270000e+001
      vertex   -1.269999e+001 -2.961159e-005 1.270000e+001
      vertex   -2.539999e+001 1.269997e+001 1.270000e+001
    endloop
  endfacet
  facet normal -0.000000e+000 0.000000e+000 1.000000e+000
    outer loop
      vertex   -2.539999e+001 1.269997e+001 1.270000e+001
      vertex   -1.269999e+001 -2.961159e-005 1.270000e+001
      vertex   -1.269999e+001 1.269997e+001 1.270000e+001
    endloop
  endfacet
  facet normal 0.000000e+000 -0.000000e+000 1.000000e+000
    outer loop
      vertex   -2.539999e+001 1.269997e+001 1.270000e+001
      vertex   -1.269999e+001 2.539997e+001 1.270000e+001
      vertex   -3.809999e+001 3.809996e+001 1.270000e+001
    endloop
  endfacet
  facet normal -0.000000e+000 0.000000e+000 1.000000e+000
    outer loop
      vertex   -3.809999e+001 3.809996e+001 1.270000e+001
      vertex   -1.269999e+001 2.539997e+001 1.270000e+001
      vertex   -1.269999e+001 3.809996e+001 1.270000e+001
    endloop
  endfacet
  facet normal -0.000000e+000 0.000000e+000 1.000000e+000
    outer loop
      vertex   -1.269999e+001 5.079996e+001 1.270000e+001
      vertex   -1.269999e+001 3.809996e+001 1.270000e+001
      vertex   5.149841e-006 3.809996e+001 1.270000e+001
    endloop
  endfacet
  facet normal 0.000000e+000 0.000000e+000 1.000000e+000
    outer loop
      vertex   5.149841e-006 5.079996e+001 1.270000e+001
      vertex   -1.269999e+001 5.079996e+001 1.270000e+001
      vertex   5.149841e-006 3.809996e+001 1.270000e+001
    endloop
  endfacet
  facet normal 0.000000e+000 0.000000e+000 1.000000e+000
    outer loop
      vertex   -3.809999e+001 3.809996e+001 1.270000e+001
      vertex   -1.269999e+001 3.809996e+001 1.270000e+001
      vertex   -1.269999e+001 5.079996e+001 1.270000e+001
    endloop
  endfacet
  facet normal -0.000000e+000 0.000000e+000 1.000000e+000
    outer loop
      vertex   -2.539999e+001 6.349996e+001 1.270000e+001
      vertex   -1.269999e+001 5.079996e+001 1.270000e+001
      vertex   -1.269999e+001 6.349996e+001 1.270000e+001
    endloop
  endfacet
  facet normal -0.000000e+000 0.000000e+000 1.000000e+000
    outer loop
      vertex   -2.539999e+001 6.349996e+001 1.270000e+001
      vertex   -3.809999e+001 3.809996e+001 1.270000e+001
      vertex   -1.269999e+001 5.079996e+001 1.270000e+001
    endloop
  endfacet
  facet normal 0.000000e+000 0.000000e+000 1.000000e+000
    outer loop
      vertex   -2.539999e+001 6.349996e+001 1.270000e+001
      vertex   -3.809999e+001 6.349996e+001 1.270000e+001
      vertex   -3.809999e+001 3.809996e+001 1.270000e+001
    endloop
  endfacet
  facet normal 0.000000e+000 0.000000e+000 1.000000e+000
    outer loop
      vertex   -2.539999e+001 6.349996e+001 1.270000e+001
      vertex   -3.809999e+001 7.619995e+001 1.270000e+001
      vertex   -3.809999e+001 6.349996e+001 1.270000e+001
    endloop
  endfacet
  facet normal 0.000000e+000 -0.000000e+000 1.000000e+000
    outer loop
      vertex   -2.539999e+001 6.349996e+001 1.270000e+001
      vertex   -2.539999e+001 7.619995e+001 1.270000e+001
      vertex   -3.809999e+001 7.619995e+001 1.270000e+001
    endloop
  endfacet
  facet normal 0.000000e+000 0.000000e+000 1.000000e+000
    outer loop
      vertex   -3.809999e+001 6.349996e+001 1.270000e+001
      vertex   -5.079998e+001 6.349996e+001 1.270000e+001
      vertex   -3.809999e+001 3.809996e+001 1.270000e+001
    endloop
  endfacet
  facet normal 0.000000e+000 0.000000e+000 1.000000e+000
    outer loop
      vertex   -3.809999e+001 3.809996e+001 1.270000e+001
      vertex   -5.079998e+001 6.349996e+001 1.270000e+001
      vertex   -6.349998e+001 5.079996e+001 1.270000e+001
    endloop
  endfacet
  facet normal 0.000000e+000 0.000000e+000 -1.000000e+000
    outer loop
      vertex   -7.619998e+001 6.349996e+001 0.000000e+000
      vertex   -7.619998e+001 7.619995e+001 0.000000e+000
      vertex   -6.349998e+001 6.349996e+001 0.000000e+000
    endloop
  endfacet
  facet normal 0.000000e+000 0.000000e+000 -1.000000e+000
    outer loop
      vertex   -6.349998e+001 6.349996e+001 0.000000e+000
      vertex   -7.619998e+001 7.619995e+001 0.000000e+000
      vertex   -5.079998e+001 7.619995e+001 0.000000e+000
    endloop
  endfacet
  facet normal 0.000000e+000 0.000000e+000 -1.000000e+000
    outer loop
      vertex   -5.079998e+001 6.349996e+001 0.000000e+000
      vertex   -6.349998e+001 6.349996e+001 0.000000e+000
      vertex   -5.079998e+001 7.619995e+001 0.000000e+000
    endloop
  endfacet
  facet normal -0.000000e+000 0.000000e+000 -1.000000e+000
    outer loop
      vertex   -5.079998e+001 6.349996e+001 0.000000e+000
      vertex   -6.349998e+001 5.079996e+001 0.000000e+000
      vertex   -6.349998e+001 6.349996e+001 0.000000e+000
    endloop
  endfacet
  facet normal -0.000000e+000 -0.000000e+000 -1.000000e+000
    outer loop
      vertex   -5.079998e+001 6.349996e+001 0.000000e+000
      vertex   -3.809999e+001 3.809996e+001 0.000000e+000
      vertex   -6.349998e+001 5.079996e+001 0.000000e+000
    endloop
  endfacet
  facet normal 0.000000e+000 0.000000e+000 -1.000000e+000
    outer loop
      vertex   -5.079998e+001 6.349996e+001 0.000000e+000
      vertex   -3.809999e+001 6.349996e+001 0.000000e+000
      vertex   -3.809999e+001 3.809996e+001 0.000000e+000
    endloop
  endfacet
  facet normal 0.000000e+000 0.000000e+000 -1.000000e+000
    outer loop
      vertex   -3.809999e+001 3.809996e+001 0.000000e+000
      vertex   -3.809999e+001 6.349996e+001 0.000000e+000
      vertex   -2.539999e+001 6.349996e+001 0.000000e+000
    endloop
  endfacet
  facet normal 0.000000e+000 0.000000e+000 -1.000000e+000
    outer loop
      vertex   -1.269999e+001 5.079996e+001 0.000000e+000
      vertex   -2.539999e+001 6.349996e+001 0.000000e+000
      vertex   -1.269999e+001 6.349996e+001 0.000000e+000
    endloop
  endfacet
  facet normal -0.000000e+000 0.000000e+000 -1.000000e+000
    outer loop
      vertex   -1.269999e+001 5.079996e+001 0.000000e+000
      vertex   -3.809999e+001 3.809996e+001 0.000000e+000
      vertex   -2.539999e+001 6.349996e+001 0.000000e+000
    endloop
  endfacet
  facet normal -0.000000e+000 -0.000000e+000 -1.000000e+000
    outer loop
      vertex   -1.269999e+001 5.079996e+001 0.000000e+000
      vertex   -1.269999e+001 3.809996e+001 0.000000e+000
      vertex   -3.809999e+001 3.809996e+001 0.000000e+000
    endloop
  endfacet
  facet normal 0.000000e+000 -0.000000e+000 -1.000000e+000
    outer loop
      vertex   -1.269999e+001 5.079996e+001 0.000000e+000
      vertex   5.149841e-006 5.079996e+001 0.000000e+000
      vertex   -1.269999e+001 3.809996e+001 0.000000e+000
    endloop
  endfacet
  facet normal 0.000000e+000 0.000000e+000 -1.000000e+000
    outer loop
      vertex   -1.269999e+001 3.809996e+001 0.000000e+000
      vertex   5.149841e-006 5.079996e+001 0.000000e+000
      vertex   5.149841e-006 3.809996e+001 0.000000e+000
    endloop
  endfacet
  facet normal 0.000000e+000 -0.000000e+000 -1.000000e+000
    outer loop
      vertex   -3.809999e+001 7.619995e+001 0.000000e+000
      vertex   -2.539999e+001 7.619995e+001 0.000000e+000
      vertex   -3.809999e+001 6.349996e+001 0.000000e+000
    endloop
  endfacet
  facet normal 0.000000e+000 0.000000e+000 -1.000000e+000
    outer loop
      vertex   -3.809999e+001 6.349996e+001 0.000000e+000
      vertex   -2.539999e+001 7.619995e+001 0.000000e+000
      vertex   -2.539999e+001 6.349996e+001 0.000000e+000
    endloop
  endfacet
  facet normal -0.000000e+000 -0.000000e+000 -1.000000e+000
    outer loop
      vertex   -1.269999e+001 3.809996e+001 0.000000e+000
      vertex   -1.269999e+001 2.539997e+001 0.000000e+000
      vertex   -3.809999e+001 3.809996e+001 0.000000e+000
    endloop
  endfacet
  facet normal 0.000000e+000 -0.000000e+000 -1.000000e+000
    outer loop
      vertex   -3.809999e+001 3.809996e+001 0.000000e+000
      vertex   -1.269999e+001 2.539997e+001 0.000000e+000
      vertex   -2.539999e+001 1.269997e+001 0.000000e+000
    endloop
  endfacet
  facet normal 0.000000e+000 0.000000e+000 -1.000000e+000
    outer loop
      vertex   -3.809999e+001 1.269997e+001 0.000000e+000
      vertex   -3.809999e+001 3.809996e+001 0.000000e+000
      vertex   -2.539999e+001 1.269997e+001 0.000000e+000
    endloop
  endfacet
  facet normal 0.000000e+000 0.000000e+000 -1.000000e+000
    outer loop
      vertex   -3.809999e+001 1.269997e+001 0.000000e+000
      vertex   -5.079998e+001 1.269997e+001 0.000000e+000
      vertex   -3.809999e+001 3.809996e+001 0.000000e+000
    endloop
  endfacet
  facet normal -0.000000e+000 0.000000e+000 -1.000000e+000
    outer loop
      vertex   -3.809999e+001 1.269997e+001 0.000000e+000
      vertex   -5.079998e+001 -2.961159e-005 0.000000e+000
      vertex   -5.079998e+001 1.269997e+001 0.000000e+000
    endloop
  endfacet
  facet normal -0.000000e+000 -0.000000e+000 -1.000000e+000
    outer loop
      vertex   -3.809999e+001 1.269997e+001 0.000000e+000
      vertex   -3.809999e+001 -2.961159e-005 0.000000e+000
      vertex   -5.079998e+001 -2.961159e-005 0.000000e+000
    endloop
  endfacet
  facet normal 0.000000e+000 0.000000e+000 -1.000000e+000
    outer loop
      vertex   -2.539999e+001 1.269997e+001 0.000000e+000
      vertex   -1.269999e+001 2.539997e+001 0.000000e+000
      vertex   -1.269999e+001 1.269997e+001 0.000000e+000
    endloop
  endfacet
  facet normal 0.000000e+000 0.000000e+000 -1.000000e+000
    outer loop
      vertex   -2.539999e+001 -2.961159e-005 0.000000e+000
      vertex   -1.269999e+001 1.269997e+001 0.000000e+000
      vertex   -1.269999e+001 -2.961159e-005 0.000000e+000
    endloop
  endfacet
  facet normal 0.000000e+000 0.000000e+000 -1.000000e+000
    outer loop
      vertex   -2.539999e+001 -2.961159e-005 0.000000e+000
      vertex   -2.539999e+001 1.269997e+001 0.000000e+000
      vertex   -1.269999e+001 1.269997e+001 0.000000e+000
    endloop
  endfacet
  facet normal 0.000000e+000 0.000000e+000 -1.000000e+000
    outer loop
      vertex   5.149841e-006 1.269997e+001 0.000000e+000
      vertex   -1.269999e+001 1.269997e+001 0.000000e+000
      vertex   5.149841e-006 2.539997e+001 0.000000e+000
    endloop
  endfacet
  facet normal -0.000000e+000 0.000000e+000 -1.000000e+000
    outer loop
      vertex   5.149841e-006 2.539997e+001 0.000000e+000
      vertex   -1.269999e+001 1.269997e+001 0.000000e+000
      vertex   -1.269999e+001 2.539997e+001 0.000000e+000
    endloop
  endfacet
  facet normal -0.000000e+000 0.000000e+000 -1.000000e+000
    outer loop
      vertex   -3.809999e+001 3.809996e+001 0.000000e+000
      vertex   -5.079998e+001 1.269997e+001 0.000000e+000
      vertex   -6.349998e+001 2.539997e+001 0.000000e+000
    endloop
  endfacet
  facet normal 0.000000e+000 -0.000000e+000 -1.000000e+000
    outer loop
      vertex   -6.349998e+001 3.809996e+001 0.000000e+000
      vertex   -3.809999e+001 3.809996e+001 0.000000e+000
      vertex   -6.349998e+001 2.539997e+001 0.000000e+000
    endloop
  endfacet
  facet normal 0.000000e+000 0.000000e+000 -1.000000e+000
    outer loop
      vertex   -6.349998e+001 3.809996e+001 0.000000e+000
      vertex   -6.349998e+001 5.079996e+001 0.000000e+000
      vertex   -3.809999e+001 3.809996e+001 0.000000e+000
    endloop
  endfacet
  facet normal 0.000000e+000 0.000000e+000 -1.000000e+000
    outer loop
      vertex   -6.349998e+001 3.809996e+001 0.000000e+000
      vertex   -7.619998e+001 3.809996e+001 0.000000e+000
      vertex   -6.349998e+001 5.079996e+001 0.000000e+000
    endloop
  endfacet
  facet normal -0.000000e+000 0.000000e+000 -1.000000e+000
    outer loop
      vertex   -6.349998e+001 5.079996e+001 0.000000e+000
      vertex   -7.619998e+001 3.809996e+001 0.000000e+000
      vertex   -7.619998e+001 5.079996e+001 0.000000e+000
    endloop
  endfacet
  facet normal 0.000000e+000 -0.000000e+000 -1.000000e+000
    outer loop
      vertex   -7.619998e+001 2.539997e+001 0.000000e+000
      vertex   -6.349998e+001 2.539997e+001 0.000000e+000
      vertex   -7.619998e+001 1.269997e+001 0.000000e+000
    endloop
  endfacet
  facet normal 0.000000e+000 0.000000e+000 -1.000000e+000
    outer loop
      vertex   -7.619998e+001 1.269997e+001 0.000000e+000
      vertex   -6.349998e+001 2.539997e+001 0.000000e+000
      vertex   -5.079998e+001 1.269997e+001 0.000000e+000
    endloop
  endfacet
endsolid
